<?xml version="1.0" encoding="UTF-8" standalone="no"?>
<!-- Created with Inkscape (http://www.inkscape.org/) -->

<svg
   width="16"
   height="16"
   viewBox="0 0 4.2333333 4.2333333"
   version="1.1"
   id="svg212"
   xml:space="preserve"
   inkscape:version="1.2 (dc2aedaf03, 2022-05-15)"
   sodipodi:docname="Card.svg"
   xmlns:inkscape="http://www.inkscape.org/namespaces/inkscape"
   xmlns:sodipodi="http://sodipodi.sourceforge.net/DTD/sodipodi-0.dtd"
   xmlns="http://www.w3.org/2000/svg"
   xmlns:svg="http://www.w3.org/2000/svg"><sodipodi:namedview
     id="namedview214"
     pagecolor="#505050"
     bordercolor="#eeeeee"
     borderopacity="1"
     inkscape:showpageshadow="0"
     inkscape:pageopacity="0"
     inkscape:pagecheckerboard="0"
     inkscape:deskcolor="#505050"
     inkscape:document-units="mm"
     showgrid="false"
     inkscape:zoom="9.5144354"
     inkscape:cx="-17.34207"
     inkscape:cy="1.2612414"
     inkscape:window-width="1920"
     inkscape:window-height="1009"
     inkscape:window-x="-8"
     inkscape:window-y="-8"
     inkscape:window-maximized="1"
     inkscape:current-layer="layer1" /><defs
     id="defs209" /><g
     inkscape:label="Шар 1"
     inkscape:groupmode="layer"
     id="layer1"><path
       id="rect357"
       style="fill:#8eef97;fill-opacity:1;stroke-width:2;stroke-linecap:round;stroke-linejoin:round;paint-order:markers fill stroke"
       d="M 1.1616862 0.20412191 C 0.87432936 0.20412191 0.64285482 0.43559645 0.64285482 0.72295329 L 0.64285482 3.51038 C 0.64285482 3.7977369 0.87432936 4.0292114 1.1616862 4.0292114 L 3.0716471 4.0292114 C 3.359004 4.0292114 3.5904785 3.7977369 3.5904785 3.51038 L 3.5904785 0.72295329 C 3.5904785 0.43559645 3.359004 0.20412191 3.0716471 0.20412191 L 1.1616862 0.20412191 z M 2.1151164 1.3596069 C 2.1196848 1.3611732 2.1810115 1.429495 2.2510254 1.5115356 C 2.3270435 1.6006115 2.4346638 1.7069699 2.5187093 1.7756022 C 2.7313291 1.9492377 2.7817745 1.9991814 2.8184326 2.0727417 C 2.8863711 2.2090851 2.8532882 2.3839619 2.7383341 2.4939046 C 2.5930134 2.6328816 2.34809 2.6422808 2.208134 2.5140584 C 2.1726962 2.4815772 2.1706001 2.4944571 2.1962484 2.5905396 C 2.2188293 2.6751117 2.2609479 2.7557631 2.3109701 2.8127482 C 2.332703 2.8375162 2.3502441 2.8614849 2.3502441 2.8659749 C 2.3502441 2.8704749 2.2424673 2.8742432 2.1109823 2.8742432 L 1.8722371 2.8742432 L 1.9130615 2.8272176 C 1.9682079 2.7643761 2.0161965 2.6664377 2.0381185 2.5724528 L 2.056722 2.4954549 L 1.9921265 2.5383464 C 1.7972589 2.6694827 1.5335047 2.6043636 1.4185181 2.3967529 C 1.3846441 2.3356344 1.3794996 2.3127071 1.3797607 2.2272542 C 1.3800157 2.1515423 1.3870326 2.1157055 1.4086995 2.0753255 C 1.4409394 2.0153034 1.545166 1.9117476 1.6903361 1.7952393 C 1.7972236 1.7094605 1.9849917 1.5176572 2.0598226 1.4180013 C 2.0852096 1.3841503 2.1102864 1.3580369 2.1151164 1.3596069 z " /></g></svg>
